<?xml version="1.0" standalone="no"?>
<!DOCTYPE svg PUBLIC "-//W3C//DTD SVG 20010904//EN"
 "http://www.w3.org/TR/2001/REC-SVG-20010904/DTD/svg10.dtd">
<svg version="1.0" xmlns="http://www.w3.org/2000/svg"
 width="1024.000000pt" height="1024.000000pt" viewBox="0 0 1024.000000 1024.000000"
 preserveAspectRatio="xMidYMid meet">

<g transform="translate(0.000000,1024.000000) scale(0.100000,-0.100000)"
fill="#000000" stroke="none">
<path d="M4915 7681 c-253 -38 -379 -74 -560 -160 -216 -103 -330 -177 -486
-318 -197 -177 -304 -322 -443 -600 -65 -131 -76 -159 -120 -323 -23 -88 -30
-122 -57 -270 -5 -30 -9 -143 -9 -250 l0 -195 -67 -50 c-77 -57 -205 -158
-245 -195 -15 -14 -51 -45 -80 -70 -111 -92 -218 -232 -260 -340 -30 -77 -31
-215 0 -282 42 -93 136 -162 277 -200 103 -29 430 -36 631 -14 82 9 179 21
216 27 l68 11 62 -57 c183 -166 391 -283 672 -381 100 -35 308 -73 485 -89
165 -15 302 -8 533 30 177 28 430 124 613 233 197 116 452 353 566 527 212
322 298 575 321 947 l11 187 81 70 c197 169 397 404 471 554 41 82 75 202 75
264 0 96 -69 207 -159 252 -22 12 -75 31 -118 43 -72 21 -98 23 -323 23 -146
0 -295 -6 -369 -14 l-123 -14 -72 75 c-98 104 -224 210 -331 280 -79 52 -286
161 -370 195 -244 100 -625 144 -890 104z m555 -166 c196 -36 429 -132 607
-252 259 -173 465 -405 610 -689 55 -107 116 -263 133 -339 10 -44 9 -49 -15
-71 -18 -16 -27 -20 -30 -11 -3 6 -19 59 -36 117 -37 126 -126 317 -204 437
-248 381 -622 641 -1059 735 -138 30 -482 32 -621 5 -252 -51 -441 -128 -646
-265 -304 -204 -507 -462 -633 -802 -162 -441 -135 -930 76 -1358 33 -68 58
-125 57 -126 -2 -2 -19 -6 -36 -9 l-33 -6 -50 102 c-271 557 -239 1230 83
1746 125 201 322 401 515 525 221 141 421 220 677 267 130 24 460 21 605 -6z
m-67 -266 c42 -7 77 -16 77 -20 0 -8 -164 -118 -295 -199 -362 -222 -658 -356
-1015 -459 -82 -24 -285 -71 -306 -71 -12 0 1 25 52 101 245 367 642 609 1084
658 101 12 294 6 403 -10z m372 -113 c39 -19 87 -45 108 -58 l38 -24 -38 -30
c-49 -39 -302 -223 -418 -304 -319 -223 -758 -466 -1075 -595 -255 -104 -710
-246 -710 -222 0 51 45 299 63 348 l22 62 165 34 c91 18 188 38 215 43 28 6
116 33 196 60 410 138 837 363 1279 674 36 25 70 46 75 46 6 0 42 -15 80 -34z
m388 -282 c42 -43 77 -81 77 -84 -1 -5 -144 -117 -384 -299 -596 -450 -1115
-716 -1881 -963 -278 -90 -251 -87 -264 -29 -18 85 -33 233 -24 241 4 4 46 17
93 30 210 56 563 184 825 299 401 177 858 454 1290 780 119 90 163 118 175
111 8 -4 50 -43 93 -86z m1134 70 c145 -30 219 -90 230 -186 25 -219 -391
-689 -1040 -1174 l-137 -103 37 -10 c21 -5 50 -13 66 -17 15 -3 27 -10 27 -14
0 -21 -391 -290 -620 -427 -276 -165 -400 -230 -717 -377 -229 -106 -479 -185
-546 -172 -39 7 -277 123 -277 134 0 5 33 18 73 31 322 103 1058 449 1437 676
963 578 1451 1045 1406 1345 -20 134 -128 190 -394 205 -121 7 -122 8 -143 37
-12 16 -19 32 -16 34 12 12 242 32 385 33 105 1 177 -4 229 -15z m-286 -255
c100 -22 113 -70 49 -195 -44 -87 -87 -142 -99 -128 -5 5 -19 41 -31 79 -13
39 -42 112 -66 163 l-43 92 69 0 c38 0 92 -5 121 -11z m-566 -184 l46 -90 -38
-33 c-86 -74 -471 -358 -643 -474 -449 -305 -745 -466 -1224 -670 -314 -133
-646 -254 -670 -245 -18 7 -123 217 -132 262 l-5 30 153 48 c231 74 503 176
763 289 151 65 529 261 676 348 217 131 568 376 844 591 l129 100 28 -33 c15
-18 48 -73 73 -123z m128 -321 c9 -38 20 -92 23 -119 l6 -51 -123 -95 c-227
-176 -612 -426 -906 -587 -407 -224 -973 -473 -1348 -592 -324 -103 -667 -165
-975 -177 -588 -22 -704 189 -346 627 102 125 320 350 338 350 11 0 10 -48 -2
-55 -16 -10 -171 -265 -207 -341 -64 -134 -55 -233 27 -315 39 -38 61 -52 116
-68 134 -38 296 -36 529 9 267 52 783 241 1211 445 241 114 696 371 884 498
287 194 704 503 725 537 14 23 31 1 48 -66z m303 -551 c-41 -524 -358 -1024
-822 -1299 -260 -154 -592 -244 -902 -244 -406 0 -782 121 -1093 351 l-83 62
43 13 44 13 91 -66 c177 -128 440 -235 681 -279 141 -26 482 -26 610 -1 326
66 575 182 812 381 288 242 492 618 544 1006 10 73 16 90 42 118 17 17 33 32
35 32 3 0 2 -39 -2 -87z m-3545 -456 c15 -45 45 -125 68 -177 23 -52 45 -101
48 -109 5 -12 -11 -13 -100 -8 -117 7 -166 22 -191 58 -25 36 -19 85 19 158
33 62 109 161 123 161 4 0 19 -37 33 -83z m3156 36 c-105 -227 -251 -406 -452
-556 -186 -139 -423 -235 -670 -273 -130 -20 -281 -28 -359 -19 l-68 7 124 49
c383 154 1045 534 1363 783 39 30 73 55 77 55 4 1 -3 -20 -15 -46z"/>
<path d="M4564 3350 c-100 -21 -185 -85 -232 -175 -24 -45 -27 -61 -27 -155 0
-95 3 -111 28 -162 35 -71 101 -130 176 -159 78 -29 213 -24 285 11 217 105
251 430 61 575 -75 57 -200 85 -291 65z m163 -124 c175 -82 169 -346 -9 -420
-187 -78 -365 135 -269 322 56 108 169 148 278 98z"/>
<path d="M6805 3351 c-57 -15 -113 -51 -135 -86 -27 -43 -30 -127 -6 -172 29
-58 71 -81 228 -128 91 -27 128 -55 128 -99 0 -37 -50 -76 -107 -83 -64 -7
-110 8 -173 58 l-50 40 -35 -28 c-19 -15 -35 -31 -35 -34 0 -24 54 -78 105
-104 49 -25 72 -31 148 -34 129 -5 211 31 253 111 21 40 18 136 -6 175 -22 37
-128 91 -232 118 -37 9 -79 28 -93 41 -34 31 -34 76 0 103 57 44 141 38 212
-16 l47 -36 32 39 33 39 -26 27 c-14 14 -47 36 -73 47 -53 23 -168 35 -215 22z"/>
<path d="M7613 3350 c-104 -15 -184 -73 -239 -173 -27 -49 -29 -59 -29 -162 0
-96 3 -116 23 -153 35 -66 85 -115 149 -148 53 -27 67 -29 163 -29 95 0 111 3
162 28 67 33 111 80 147 157 22 46 26 69 26 145 0 82 -3 97 -33 158 -66 134
-207 201 -369 177z m166 -129 c72 -37 112 -109 113 -201 2 -140 -104 -241
-239 -227 -94 10 -158 68 -185 169 -15 60 0 145 37 197 59 86 175 112 274 62z"/>
<path d="M2200 3344 c0 -3 48 -76 106 -161 l106 -155 -108 -161 c-60 -89 -110
-165 -112 -169 -2 -4 26 -8 62 -8 l66 0 77 115 c42 64 81 114 87 112 6 -2 39
-44 73 -93 33 -49 68 -98 76 -109 12 -16 27 -20 86 -21 l72 -2 -17 27 c-9 14
-24 35 -34 46 -24 28 -180 253 -180 260 0 3 31 52 68 108 38 56 84 127 104
157 l35 55 -71 -5 -70 -5 -51 -80 c-27 -45 -59 -93 -70 -108 l-20 -27 -78 115
-78 115 -64 0 c-36 0 -65 -3 -65 -6z"/>
<path d="M2990 3020 l0 -330 60 0 59 0 3 88 3 87 110 6 c152 7 201 33 244 129
27 59 28 159 2 215 -22 48 -77 99 -123 113 -18 6 -106 13 -195 16 l-163 5 0
-329z m321 197 c41 -28 59 -60 59 -110 0 -92 -48 -127 -175 -127 l-85 0 0 123
c0 68 3 127 7 130 3 4 41 7 83 7 64 0 83 -4 111 -23z"/>
<path d="M3702 3023 l-1 -321 25 -6 c13 -4 117 -6 229 -6 l205 1 0 54 0 55
-167 2 -168 3 -3 272 -2 272 -58 -2 -59 -2 -1 -322z"/>
<path d="M5200 3018 l0 -328 60 0 60 0 0 99 c0 81 3 100 16 105 20 8 88 8 107
0 8 -3 43 -50 78 -104 l64 -100 73 0 74 0 -45 63 c-95 133 -110 157 -106 160
2 1 23 15 45 29 102 66 118 240 30 336 -46 51 -69 57 -269 62 l-187 5 0 -327z
m324 208 c46 -19 66 -52 66 -106 0 -88 -49 -120 -185 -120 l-85 0 0 120 0 120
85 0 c51 0 99 -6 119 -14z"/>
<path d="M5954 3341 c-2 -2 -4 -150 -4 -328 l0 -323 235 0 235 0 0 55 0 55
-174 0 c-130 0 -175 3 -178 13 -2 6 -4 44 -3 82 l0 70 163 3 162 2 0 50 0 50
-160 0 -160 0 0 85 0 85 175 0 175 0 0 53 0 52 -231 0 c-127 0 -233 -2 -235
-4z"/>
<path d="M8240 3025 c0 -285 2 -324 16 -329 9 -3 112 -6 230 -6 l214 0 0 55 0
55 -167 2 -168 3 -5 271 -5 271 -57 0 -58 1 0 -323z"/>
<path d="M1520 3016 l0 -325 213 0 c276 1 267 -1 267 60 l0 49 -177 2 -178 3
0 80 0 80 163 3 162 2 0 50 0 50 -162 2 -163 3 0 80 0 80 178 3 177 2 0 50 0
50 -240 0 -240 0 0 -324z"/>
<path d="M4471 2402 c13 -20 37 -59 55 -86 l32 -48 -54 -84 -54 -84 30 0 c25
0 36 9 70 60 22 33 43 60 45 60 2 0 20 -27 39 -59 25 -40 44 -61 62 -65 15 -4
29 -5 32 -2 2 3 -18 41 -47 84 -28 43 -51 82 -51 88 0 5 21 40 46 78 25 39 46
74 47 80 1 5 -10 11 -24 12 -22 2 -31 -7 -63 -62 -21 -35 -42 -62 -46 -59 -5
3 -25 32 -44 64 -31 50 -40 58 -66 59 l-31 1 22 -37z"/>
<path d="M5005 2430 c-3 -6 18 -49 47 -98 49 -80 53 -93 58 -161 5 -68 7 -75
28 -76 21 -2 22 2 22 70 0 69 2 76 55 168 30 52 55 98 55 101 0 3 -14 4 -32 2
-27 -3 -35 -11 -65 -70 -19 -36 -39 -64 -43 -61 -4 3 -25 34 -46 70 -36 62
-63 81 -79 55z"/>
<path d="M5540 2411 l0 -31 90 0 c50 0 90 -3 90 -7 0 -5 -41 -62 -90 -127 -50
-66 -90 -128 -90 -138 0 -16 12 -18 135 -18 l135 0 0 25 c0 25 -1 25 -84 25
-47 0 -87 4 -91 10 -3 5 35 63 85 129 49 66 90 129 90 139 0 17 -10 19 -135
21 l-135 2 0 -30z"/>
</g>
</svg>
