<?xml version="1.0" encoding="UTF-8"?>
<svg version="1.1" xmlns="http://www.w3.org/2000/svg" width="200" height="200">
<path d="M0 0 C1.05267563 0.00424484 1.05267563 0.00424484 2.12661743 0.00857544 C4.34761278 0.01968738 6.56819095 0.04477416 8.7890625 0.0703125 C10.30337955 0.08035396 11.81770299 0.08947777 13.33203125 0.09765625 C17.02617508 0.11959696 20.72007801 0.15406375 24.4140625 0.1953125 C25.55721997 2.48162744 25.53518982 3.73878656 25.52758789 6.27783203 C25.52751236 7.11855255 25.52743683 7.95927307 25.52735901 8.82546997 C25.51961708 10.18803421 25.51961708 10.18803421 25.51171875 11.578125 C25.5103038 12.50752899 25.50888885 13.43693298 25.50743103 14.39450073 C25.50182303 17.36980374 25.48926918 20.34503214 25.4765625 23.3203125 C25.47154853 25.33463433 25.46698545 27.34895734 25.46289062 29.36328125 C25.451851 34.30732052 25.43458099 39.25130385 25.4140625 44.1953125 C22.08094775 45.9778043 19.16925307 46.68324106 15.4140625 47.1953125 C16.1771875 47.9378125 16.9403125 48.6803125 17.7265625 49.4453125 C22.93392532 54.77377678 25.40735566 59.40662852 25.41796875 66.984375 C24.97735446 73.65653424 24.08166695 77.80130851 18.9765625 82.3828125 C12.75625513 86.78254211 7.08145755 87.3208793 -0.48046875 87.328125 C-1.76501953 87.32941406 -3.04957031 87.33070313 -4.37304688 87.33203125 C-5.03328857 87.32993652 -5.69353027 87.3278418 -6.3737793 87.32568359 C-8.41006764 87.32028165 -10.4461399 87.32567169 -12.48242188 87.33203125 C-13.76052734 87.33074219 -15.03863281 87.32945312 -16.35546875 87.328125 C-17.52698486 87.32699707 -18.69850098 87.32586914 -19.90551758 87.32470703 C-22.5859375 87.1953125 -22.5859375 87.1953125 -23.5859375 86.1953125 C-23.83812528 83.85401365 -24.01787144 81.5446956 -24.1484375 79.1953125 C-24.1901709 78.4643335 -24.2319043 77.73335449 -24.27490234 76.98022461 C-24.62998902 69.90820243 -24.69416279 62.83775753 -24.7109375 55.7578125 C-24.71552979 54.64986328 -24.72012207 53.54191406 -24.72485352 52.40039062 C-24.72283936 51.36462891 -24.7208252 50.32886719 -24.71875 49.26171875 C-24.71762207 48.33302979 -24.71649414 47.40434082 -24.71533203 46.44750977 C-24.5859375 44.1953125 -24.5859375 44.1953125 -23.5859375 42.1953125 C-21.30078125 41.5625 -21.30078125 41.5625 -18.5234375 41.0703125 C-17.14478516 40.81894531 -17.14478516 40.81894531 -15.73828125 40.5625 C-15.02800781 40.44132812 -14.31773438 40.32015625 -13.5859375 40.1953125 C-14.05644531 39.84339844 -14.52695312 39.49148437 -15.01171875 39.12890625 C-20.73258642 34.59248324 -23.23470607 30.13801515 -24.4609375 22.8828125 C-24.86628553 17.60428034 -24.06195244 12.89974089 -21.5859375 8.1953125 C-15.58009532 1.77937977 -8.62048744 -0.0689639 0 0 Z " fill="#F5A50C" transform="translate(69.5859375,56.8046875)"/>
<path d="M0 0 C0.73541016 0.00202423 1.47082031 0.00404846 2.22851562 0.00613403 C2.97939453 0.00517731 3.73027344 0.00422058 4.50390625 0.00323486 C6.09440189 0.00255315 7.6849003 0.00440682 9.27539062 0.00857544 C11.71816217 0.01392386 14.16074984 0.00863019 16.60351562 0.00222778 C18.1451827 0.00288857 19.68684966 0.00416973 21.22851562 0.00613403 C21.96392578 0.0041098 22.69933594 0.00208557 23.45703125 0 C28.61356402 0.02399493 28.61356402 0.02399493 29.72851562 1.13894653 C30.19064196 4.79602033 30.43280735 8.46371516 30.72851562 12.13894653 C41.61851562 12.63394653 41.61851562 12.63394653 52.72851562 13.13894653 C55.25052732 18.18296992 53.52186181 26.37307294 52.01367188 31.63113403 C49.08637245 38.08878169 44.07059524 42.39968281 37.54101562 45.01394653 C33.72851562 46.13894653 33.72851562 46.13894653 29.72851562 46.13894653 C29.6909314 47.94866943 29.6909314 47.94866943 29.65258789 49.79495239 C29.5586904 54.25470314 29.45842729 58.71429166 29.35620117 63.17385864 C29.31278521 65.10708838 29.2711152 67.04035812 29.23120117 68.97366333 C29.17365931 71.74632855 29.10991943 74.5187911 29.04492188 77.29129028 C29.01985313 78.59597511 29.01985313 78.59597511 28.99427795 79.92701721 C28.84238733 86.02507483 28.84238733 86.02507483 27.72851562 87.13894653 C18.5224138 87.62347821 10.16269426 85.8004652 2.72851562 80.13894653 C-9.72355626 66.22661035 -6.43853432 43.09085673 -6.40185547 25.68533325 C-6.39639418 22.58779221 -6.40188856 19.49039001 -6.40820312 16.39285278 C-6.40754396 14.42280038 -6.40626618 12.45274806 -6.40429688 10.48269653 C-6.40632111 9.55686768 -6.40834534 8.63103882 -6.41043091 7.67715454 C-6.38193638 0.02969711 -6.38193638 0.02969711 0 0 Z " fill="#F5A50D" transform="translate(105.271484375,56.861053466796875)"/>
<path d="M0 0 C1.63702881 0.00374634 1.63702881 0.00374634 3.30712891 0.00756836 C5.39420166 0.02122437 5.39420166 0.02122437 7.5234375 0.03515625 C11.9371875 0.05578125 16.3509375 0.07640625 20.8984375 0.09765625 C20.8984375 12.63765625 20.8984375 25.17765625 20.8984375 38.09765625 C13.9684375 38.09765625 7.0384375 38.09765625 -0.1015625 38.09765625 C-0.1015625 37.43765625 -0.1015625 36.77765625 -0.1015625 36.09765625 C-2.0815625 35.76765625 -4.0615625 35.43765625 -6.1015625 35.09765625 C-6.1015625 34.43765625 -6.1015625 33.77765625 -6.1015625 33.09765625 C-7.1225 32.91203125 -7.1225 32.91203125 -8.1640625 32.72265625 C-11.5293037 32.00664748 -14.80169675 31.068205 -18.1015625 30.09765625 C-18.4315625 28.11765625 -18.7615625 26.13765625 -19.1015625 24.09765625 C-19.7615625 24.09765625 -20.4215625 24.09765625 -21.1015625 24.09765625 C-21.33983917 10.46293566 -21.33983917 10.46293566 -17.6640625 6.41015625 C-16.8184375 5.64703125 -15.9728125 4.88390625 -15.1015625 4.09765625 C-14.4415625 3.43765625 -13.7815625 2.77765625 -13.1015625 2.09765625 C-11.44334477 1.72455726 -9.77579236 1.39064648 -8.1015625 1.09765625 C-5.33538687 -0.28543156 -3.0913825 -0.01444571 0 0 Z " fill="#F5A50B" transform="translate(70.1015625,60.90234375)"/>
<path d="M0 0 C1.05267563 0.00424484 1.05267563 0.00424484 2.12661743 0.00857544 C4.34761278 0.01968738 6.56819095 0.04477416 8.7890625 0.0703125 C10.30337955 0.08035396 11.81770299 0.08947777 13.33203125 0.09765625 C17.02617508 0.11959696 20.72007801 0.15406375 24.4140625 0.1953125 C25.55721997 2.48162744 25.53518982 3.73878656 25.52758789 6.27783203 C25.52751236 7.11855255 25.52743683 7.95927307 25.52735901 8.82546997 C25.51961708 10.18803421 25.51961708 10.18803421 25.51171875 11.578125 C25.5103038 12.50752899 25.50888885 13.43693298 25.50743103 14.39450073 C25.50182303 17.36980374 25.48926918 20.34503214 25.4765625 23.3203125 C25.47154853 25.33463433 25.46698545 27.34895734 25.46289062 29.36328125 C25.451851 34.30732052 25.43458099 39.25130385 25.4140625 44.1953125 C22.08094775 45.9778043 19.16925307 46.68324106 15.4140625 47.1953125 C16.1771875 47.9378125 16.9403125 48.6803125 17.7265625 49.4453125 C22.93392532 54.77377678 25.40735566 59.40662852 25.41796875 66.984375 C24.97735446 73.65653424 24.08166695 77.80130851 18.9765625 82.3828125 C12.75625513 86.78254211 7.08145755 87.3208793 -0.48046875 87.328125 C-1.76501953 87.32941406 -3.04957031 87.33070313 -4.37304688 87.33203125 C-5.03328857 87.32993652 -5.69353027 87.3278418 -6.3737793 87.32568359 C-8.41006764 87.32028165 -10.4461399 87.32567169 -12.48242188 87.33203125 C-13.76052734 87.33074219 -15.03863281 87.32945312 -16.35546875 87.328125 C-17.52698486 87.32699707 -18.69850098 87.32586914 -19.90551758 87.32470703 C-22.5859375 87.1953125 -22.5859375 87.1953125 -23.5859375 86.1953125 C-23.83812528 83.85401365 -24.01787144 81.5446956 -24.1484375 79.1953125 C-24.1901709 78.4643335 -24.2319043 77.73335449 -24.27490234 76.98022461 C-24.62998902 69.90820243 -24.69416279 62.83775753 -24.7109375 55.7578125 C-24.71552979 54.64986328 -24.72012207 53.54191406 -24.72485352 52.40039062 C-24.72283936 51.36462891 -24.7208252 50.32886719 -24.71875 49.26171875 C-24.71762207 48.33302979 -24.71649414 47.40434082 -24.71533203 46.44750977 C-24.5859375 44.1953125 -24.5859375 44.1953125 -23.5859375 42.1953125 C-21.30078125 41.5625 -21.30078125 41.5625 -18.5234375 41.0703125 C-17.14478516 40.81894531 -17.14478516 40.81894531 -15.73828125 40.5625 C-15.02800781 40.44132812 -14.31773438 40.32015625 -13.5859375 40.1953125 C-14.05644531 39.84339844 -14.52695312 39.49148437 -15.01171875 39.12890625 C-20.73258642 34.59248324 -23.23470607 30.13801515 -24.4609375 22.8828125 C-24.86628553 17.60428034 -24.06195244 12.89974089 -21.5859375 8.1953125 C-15.58009532 1.77937977 -8.62048744 -0.0689639 0 0 Z M-9.5859375 6.1953125 C-10.2459375 6.2984375 -10.9059375 6.4015625 -11.5859375 6.5078125 C-14.56912831 7.53328434 -15.73240486 9.72393565 -17.5859375 12.1953125 C-18.5759375 12.6903125 -18.5759375 12.6903125 -19.5859375 13.1953125 C-21.13627143 18.00134769 -20.673173 23.20350309 -20.5859375 28.1953125 C-19.9259375 28.1953125 -19.2659375 28.1953125 -18.5859375 28.1953125 C-18.2559375 30.1753125 -17.9259375 32.1553125 -17.5859375 34.1953125 C-13.60532973 35.36607949 -9.66972033 36.45280653 -5.5859375 37.1953125 C-5.5859375 37.8553125 -5.5859375 38.5153125 -5.5859375 39.1953125 C-3.6059375 39.5253125 -1.6259375 39.8553125 0.4140625 40.1953125 C0.4140625 40.8553125 0.4140625 41.5153125 0.4140625 42.1953125 C7.3440625 42.1953125 14.2740625 42.1953125 21.4140625 42.1953125 C21.4140625 29.6553125 21.4140625 17.1153125 21.4140625 4.1953125 C14.8553125 4.1334375 14.8553125 4.1334375 8.1640625 4.0703125 C6.79088867 4.05210449 5.41771484 4.03389648 4.00292969 4.01513672 C2.91657227 4.0101416 1.83021484 4.00514648 0.7109375 4 C-0.39926758 3.98952637 -1.50947266 3.97905273 -2.65332031 3.96826172 C-5.55856516 4.19319326 -7.10640322 4.75276337 -9.5859375 6.1953125 Z M-20.5859375 45.1953125 C-20.5859375 57.7353125 -20.5859375 70.2753125 -20.5859375 83.1953125 C-16.1103125 83.2365625 -11.6346875 83.2778125 -7.0234375 83.3203125 C-4.92633423 83.34762451 -4.92633423 83.34762451 -2.78686523 83.37548828 C3.31447208 83.40271267 8.68035762 83.3853291 14.4140625 81.1953125 C14.4140625 80.5353125 14.4140625 79.8753125 14.4140625 79.1953125 C15.4040625 79.1953125 16.3940625 79.1953125 17.4140625 79.1953125 C17.4140625 76.5553125 17.4140625 73.9153125 17.4140625 71.1953125 C18.0740625 71.1953125 18.7340625 71.1953125 19.4140625 71.1953125 C21.67187107 66.01563401 21.91636789 61.59359653 20.4140625 56.1953125 C16.75352464 50.99971038 11.05635028 48.76994867 5.4140625 46.1953125 C5.0840625 46.8553125 4.7540625 47.5153125 4.4140625 48.1953125 C-1.69704861 50.1953125 -1.69704861 50.1953125 -4.5859375 50.1953125 C-3.9259375 48.8753125 -3.2659375 47.5553125 -2.5859375 46.1953125 C-2.9159375 45.8653125 -3.2459375 45.5353125 -3.5859375 45.1953125 C-9.1959375 45.1953125 -14.8059375 45.1953125 -20.5859375 45.1953125 Z " fill="#ECA038" transform="translate(69.5859375,56.8046875)"/>
<path d="M0 0 C0.73541016 0.00202423 1.47082031 0.00404846 2.22851562 0.00613403 C2.97939453 0.00517731 3.73027344 0.00422058 4.50390625 0.00323486 C6.09440189 0.00255315 7.6849003 0.00440682 9.27539062 0.00857544 C11.71816217 0.01392386 14.16074984 0.00863019 16.60351562 0.00222778 C18.1451827 0.00288857 19.68684966 0.00416973 21.22851562 0.00613403 C21.96392578 0.0041098 22.69933594 0.00208557 23.45703125 0 C28.61356402 0.02399493 28.61356402 0.02399493 29.72851562 1.13894653 C30.19064196 4.79602033 30.43280735 8.46371516 30.72851562 12.13894653 C41.61851562 12.63394653 41.61851562 12.63394653 52.72851562 13.13894653 C55.25052732 18.18296992 53.52186181 26.37307294 52.01367188 31.63113403 C49.08637245 38.08878169 44.07059524 42.39968281 37.54101562 45.01394653 C33.72851562 46.13894653 33.72851562 46.13894653 29.72851562 46.13894653 C29.6909314 47.94866943 29.6909314 47.94866943 29.65258789 49.79495239 C29.5586904 54.25470314 29.45842729 58.71429166 29.35620117 63.17385864 C29.31278521 65.10708838 29.2711152 67.04035812 29.23120117 68.97366333 C29.17365931 71.74632855 29.10991943 74.5187911 29.04492188 77.29129028 C29.01985313 78.59597511 29.01985313 78.59597511 28.99427795 79.92701721 C28.84238733 86.02507483 28.84238733 86.02507483 27.72851562 87.13894653 C18.5224138 87.62347821 10.16269426 85.8004652 2.72851562 80.13894653 C-9.72355626 66.22661035 -6.43853432 43.09085673 -6.40185547 25.68533325 C-6.39639418 22.58779221 -6.40188856 19.49039001 -6.40820312 16.39285278 C-6.40754396 14.42280038 -6.40626618 12.45274806 -6.40429688 10.48269653 C-6.40632111 9.55686768 -6.40834534 8.63103882 -6.41043091 7.67715454 C-6.38193638 0.02969711 -6.38193638 0.02969711 0 0 Z M-3.27148438 2.13894653 C-3.38793005 13.52074305 -3.38793005 13.52074305 -3.46679688 24.90261841 C-3.49065983 29.54855747 -3.51881482 34.19417962 -3.57324219 38.83987427 C-3.61687197 42.58760985 -3.6406573 46.33500534 -3.65099335 50.08297539 C-3.6583542 51.50907173 -3.67272824 52.93515056 -3.6944046 54.36110115 C-3.98759386 65.00093239 -3.98759386 65.00093239 0.72851562 74.13894653 C2.68448746 75.53606927 4.68287964 76.8767456 6.72851562 78.13894653 C7.44007812 79.19082153 7.44007812 79.19082153 8.16601562 80.26394653 C10.61394944 83.20146711 13.01876807 83.43232795 16.72851562 84.13894653 C20.02851562 84.13894653 23.32851562 84.13894653 26.72851562 84.13894653 C26.72851562 71.26894653 26.72851562 58.39894653 26.72851562 45.13894653 C31.01851562 44.14894653 35.30851562 43.15894653 39.72851562 42.13894653 C39.72851562 41.47894653 39.72851562 40.81894653 39.72851562 40.13894653 C40.38851562 40.13894653 41.04851562 40.13894653 41.72851562 40.13894653 C41.72851562 39.47894653 41.72851562 38.81894653 41.72851562 38.13894653 C42.71851563 38.13894653 43.70851562 38.13894653 44.72851562 38.13894653 C44.72851562 37.14894653 44.72851562 36.15894653 44.72851562 35.13894653 C45.71851563 34.80894653 46.70851562 34.47894653 47.72851562 34.13894653 C48.76379795 32.39260396 48.76379795 32.39260396 49.41601562 30.20144653 C49.79306641 29.13603638 49.79306641 29.13603638 50.17773438 28.04910278 C50.978722 23.81693413 50.72851562 19.44624647 50.72851562 15.13894653 C43.13851562 15.13894653 35.54851562 15.13894653 27.72851562 15.13894653 C27.72851562 10.84894653 27.72851562 6.55894653 27.72851562 2.13894653 C17.49851562 2.13894653 7.26851562 2.13894653 -3.27148438 2.13894653 Z " fill="#945382" transform="translate(105.271484375,56.861053466796875)"/>
<path d="M0 0 C1.8085144 0.00749268 1.8085144 0.00749268 3.65356445 0.01513672 C5.17425537 0.03334473 6.69494629 0.05155273 8.26171875 0.0703125 C15.53203125 0.1321875 15.53203125 0.1321875 22.94921875 0.1953125 C22.94921875 14.3853125 22.94921875 28.5753125 22.94921875 43.1953125 C17.66921875 43.1953125 12.38921875 43.1953125 6.94921875 43.1953125 C8.23419412 45.76526324 9.44834248 46.09965713 12.01171875 47.3203125 C12.74519531 47.67351562 13.47867188 48.02671875 14.234375 48.390625 C14.80027344 48.65617187 15.36617187 48.92171875 15.94921875 49.1953125 C15.45421875 50.1853125 15.45421875 50.1853125 14.94921875 51.1953125 C11.31921875 49.2153125 7.68921875 47.2353125 3.94921875 45.1953125 C4.27921875 43.8753125 4.60921875 42.5553125 4.94921875 41.1953125 C10.22921875 41.1953125 15.50921875 41.1953125 20.94921875 41.1953125 C20.94921875 28.6553125 20.94921875 16.1153125 20.94921875 3.1953125 C14.39046875 3.3809375 14.39046875 3.3809375 7.69921875 3.5703125 C6.32604492 3.60431152 4.95287109 3.63831055 3.53808594 3.67333984 C1.9085498 3.72675537 1.9085498 3.72675537 0.24609375 3.78125 C-1.41921387 3.82838135 -1.41921387 3.82838135 -3.11816406 3.87646484 C-5.96867996 4.18638607 -7.5993535 4.78847226 -10.05078125 6.1953125 C-10.71078125 6.2984375 -11.37078125 6.4015625 -12.05078125 6.5078125 C-15.01803337 7.52780542 -16.17768752 9.76029065 -18.05078125 12.1953125 C-18.71078125 12.1953125 -19.37078125 12.1953125 -20.05078125 12.1953125 C-20.38078125 17.1453125 -20.71078125 22.0953125 -21.05078125 27.1953125 C-20.39078125 27.1953125 -19.73078125 27.1953125 -19.05078125 27.1953125 C-18.84582031 27.74960938 -18.64085937 28.30390625 -18.4296875 28.875 C-18.16027344 29.59945312 -17.89085937 30.32390625 -17.61328125 31.0703125 C-17.21302734 32.14925781 -17.21302734 32.14925781 -16.8046875 33.25 C-16.07161271 35.23180095 -16.07161271 35.23180095 -15.05078125 37.1953125 C-19.30458263 35.67609772 -20.90138694 33.06422226 -23.05078125 29.1953125 C-25.78911279 22.23965752 -25.48097836 15.61534907 -22.61328125 8.7578125 C-19.75765006 4.07457735 -17.23212834 3.60042358 -12.05078125 2.1953125 C-10.91733276 1.67541748 -10.91733276 1.67541748 -9.76098633 1.14501953 C-6.38143572 -0.03923881 -3.57829348 -0.03045356 0 0 Z " fill="#E39A4C" transform="translate(70.05078125,57.8046875)"/>
<path d="M0 0 C1.50062713 0.0201013 3.00128034 0.03834564 4.50195312 0.0546875 C8.14768483 0.09838313 11.79242199 0.16720798 15.4375 0.25 C16.58065747 2.53631494 16.55862732 3.79347406 16.55102539 6.33251953 C16.55094986 7.17324005 16.55087433 8.01396057 16.55079651 8.88015747 C16.54305458 10.24272171 16.54305458 10.24272171 16.53515625 11.6328125 C16.5337413 12.56221649 16.53232635 13.49162048 16.53086853 14.44918823 C16.52526053 17.42449124 16.51270668 20.39971964 16.5 23.375 C16.49498603 25.38932183 16.49042295 27.40364484 16.48632812 29.41796875 C16.4752885 34.36200802 16.45801849 39.30599135 16.4375 44.25 C13.10438525 46.0324918 10.19269057 46.73792856 6.4375 47.25 C7.200625 47.9925 7.96375 48.735 8.75 49.5 C13.95736282 54.82846428 16.43079316 59.46131602 16.44140625 67.0390625 C16.02776067 73.30283847 15.01901734 77.25543988 10.875 82.0625 C9.4375 83.25 9.4375 83.25 7.4375 83.25 C7.4375 81.25 7.4375 81.25 9.875 78.75 C10.720625 77.925 11.56625 77.1 12.4375 76.25 C14.7915518 71.5418964 13.79571282 64.86195767 12.6875 59.875 C11.29413304 56.94892939 9.50563631 54.73176358 7.4375 52.25 C7.4375 51.59 7.4375 50.93 7.4375 50.25 C6.32375 49.816875 6.32375 49.816875 5.1875 49.375 C2.87010203 48.42697356 0.65832885 47.40154089 -1.5625 46.25 C-1.5625 45.59 -1.5625 44.93 -1.5625 44.25 C3.7175 44.25 8.9975 44.25 14.4375 44.25 C14.4375 30.06 14.4375 15.87 14.4375 1.25 C9.61125 1.353125 4.785 1.45625 -0.1875 1.5625 C-2.45488037 1.59984253 -2.45488037 1.59984253 -4.76806641 1.63793945 C-6.57283447 1.68760864 -6.57283447 1.68760864 -8.4140625 1.73828125 C-9.63947754 1.76446533 -10.86489258 1.79064941 -12.12744141 1.81762695 C-15.84737109 2.28585691 -18.24259231 3.58541991 -21.5625 5.25 C-23.9375 4.9375 -23.9375 4.9375 -25.5625 4.25 C-17.1923091 -0.54375082 -9.33005881 -0.21834336 0 0 Z " fill="#8A4E83" transform="translate(78.5625,56.75)"/>
<path d="M0 0 C0.66 0 1.32 0 2 0 C2.00364563 0.79878067 2.00729126 1.59756134 2.01104736 2.42054749 C2.04899811 9.9680194 2.10593033 17.51500155 2.18390274 25.06215763 C2.22332243 28.94176425 2.25553757 32.82114578 2.27099609 36.70092773 C2.2861995 40.44892658 2.32070886 44.1963064 2.36830902 47.94402885 C2.38308516 49.37001587 2.39103885 50.7960913 2.39188385 52.22215462 C2.27199058 62.85716576 2.27199058 62.85716576 7 72 C10.03201925 74.24407254 10.03201925 74.24407254 13 76 C13.66 76.99 14.32 77.98 15 79 C20.76075035 81.16028138 25.65908257 81.36590826 32 82 C32 69.13 32 56.26 32 43 C32.33 43 32.66 43 33 43 C33 56.2 33 69.4 33 83 C13.40229885 83 13.40229885 83 8 78 C3.15013306 72.10792761 0.92615566 67.30273179 0.68359375 59.6484375 C0.64161865 58.33673584 0.59964355 57.02503418 0.55639648 55.67358398 C0.51633248 54.24073467 0.47671082 52.80787292 0.4375 51.375 C0.41632111 50.65434357 0.39514221 49.93368713 0.37332153 49.19119263 C-0.10415257 32.79460091 -0.10388015 16.40187628 0 0 Z " fill="#C68166" transform="translate(100,59)"/>
<path d="M0 0 C1.62723299 0.45034123 3.25173664 0.91055354 4.875 1.375 C6.23238281 1.75785156 6.23238281 1.75785156 7.6171875 2.1484375 C10 3 10 3 12 5 C5.4 5 -1.2 5 -8 5 C-8 18.86 -8 32.72 -8 47 C-0.2965625 46.7834375 -0.2965625 46.7834375 7.5625 46.5625 C9.16939697 46.51939697 10.77629395 46.47629395 12.43188477 46.43188477 C13.71377686 46.39377686 14.99566895 46.35566895 16.31640625 46.31640625 C17.62037354 46.27974854 18.92434082 46.24309082 20.26782227 46.20532227 C23.91751656 46.00453775 27.39467558 45.57334248 31 45 C26.04729379 49.38124011 20.4617301 49.12672204 14.10546875 49.1328125 C12.82091797 49.13410156 11.53636719 49.13539063 10.21289062 49.13671875 C9.55264893 49.13462402 8.89240723 49.1325293 8.2121582 49.13037109 C6.17586986 49.12496915 4.1397976 49.13035919 2.10351562 49.13671875 C0.18635742 49.13478516 0.18635742 49.13478516 -1.76953125 49.1328125 C-2.94104736 49.13168457 -4.11256348 49.13055664 -5.31958008 49.12939453 C-8 49 -8 49 -9 48 C-9.25218778 45.65870115 -9.43193394 43.3493831 -9.5625 41 C-9.6042334 40.269021 -9.6459668 39.53804199 -9.68896484 38.78491211 C-10.04405152 31.71288993 -10.10822529 24.64244503 -10.125 17.5625 C-10.12959229 16.45455078 -10.13418457 15.34660156 -10.13891602 14.20507812 C-10.13690186 13.16931641 -10.1348877 12.13355469 -10.1328125 11.06640625 C-10.13168457 10.13771729 -10.13055664 9.20902832 -10.12939453 8.25219727 C-10 6 -10 6 -9 4 C-6.71484375 3.3671875 -6.71484375 3.3671875 -3.9375 2.875 C-3.01839844 2.70742187 -2.09929688 2.53984375 -1.15234375 2.3671875 C-0.44207031 2.24601562 0.26820312 2.12484375 1 2 C0.67 1.34 0.34 0.68 0 0 Z " fill="#97567C" transform="translate(55,95)"/>
<path d="M0 0 C0.495 1.485 0.495 1.485 1 3 C-5.05064572 8.87363215 -10.20939123 13 -19 13 C-19.02505615 14.20648193 -19.0501123 15.41296387 -19.07592773 16.65600586 C-19.16982523 21.11575661 -19.27008833 25.57534513 -19.37231445 30.03491211 C-19.41573041 31.96814185 -19.45740042 33.90141159 -19.49731445 35.8347168 C-19.55485631 38.60738202 -19.6185962 41.37984457 -19.68359375 44.15234375 C-19.70866249 45.45702858 -19.70866249 45.45702858 -19.73423767 46.78807068 C-19.88612829 52.88612829 -19.88612829 52.88612829 -21 54 C-25.84034716 54.16407956 -30.23258627 53.95348275 -35 53 C-35 52.67 -35 52.34 -35 52 C-30.38 52 -25.76 52 -21 52 C-21 38.8 -21 25.6 -21 12 C-13.125 8.625 -13.125 8.625 -9 9 C-9 8.34 -9 7.68 -9 7 C-8.34 7 -7.68 7 -7 7 C-7 6.34 -7 5.68 -7 5 C-6.21625 4.731875 -5.4325 4.46375 -4.625 4.1875 C-1.71885077 3.15185568 -1.71885077 3.15185568 0 0 Z " fill="#A0607A" transform="translate(154,90)"/>
<path d="M0 0 C10.23 0 20.46 0 31 0 C31 3.63 31 7.26 31 11 C30.67 11 30.34 11 30 11 C29.67 8.03 29.34 5.06 29 2 C15.14 1.505 15.14 1.505 1 1 C1.06774571 8.92157634 1.13832018 16.84227388 1.2355423 24.76340485 C1.28003258 28.45284414 1.31950182 32.14217434 1.34643555 35.83178711 C1.3726224 39.3916891 1.41313029 42.95117687 1.46318626 46.51082039 C1.48776256 48.51626795 1.49785978 50.52187629 1.50764465 52.52745056 C1.62144126 59.65969867 2.29834031 65.37951845 5 72 C1.60983952 68.82855955 0.08277375 66.94685836 -0.12025452 62.17158508 C-0.11803391 61.0235289 -0.11581329 59.87547272 -0.11352539 58.69262695 C-0.11344986 57.39150467 -0.11337433 56.09038239 -0.11329651 54.74983215 C-0.10818985 53.3293148 -0.10297385 51.90879783 -0.09765625 50.48828125 C-0.09579091 49.03525338 -0.09436756 47.58222489 -0.09336853 46.12919617 C-0.08955246 42.30693828 -0.07972993 38.48471845 -0.06866455 34.66247559 C-0.05663124 30.07528215 -0.05204385 25.48807598 -0.04621124 20.90087128 C-0.0365177 13.93388772 -0.0173548 6.96698767 0 0 Z " fill="#ECA238" transform="translate(102,59)"/>
<path d="M0 0 C2.31 0 4.62 0 7 0 C7.33 0.66 7.66 1.32 8 2 C10.02463255 2.65213292 10.02463255 2.65213292 12 3 C12 3.66 12 4.32 12 5 C14.97 5.495 14.97 5.495 18 6 C18 6.66 18 7.32 18 8 C21.3 7.67 24.6 7.34 28 7 C28 7.33 28 7.66 28 8 C26.35 8.33 24.7 8.66 23 9 C22.979375 9.763125 22.95875 10.52625 22.9375 11.3125 C22 14 22 14 18.625 15.8125 C15 17 15 17 12 17 C12.8125 14.0625 12.8125 14.0625 14 11 C14.99 10.67 15.98 10.34 17 10 C16.02417969 9.61328125 15.04835938 9.2265625 14.04296875 8.828125 C12.75755936 8.30270219 11.4724169 7.77662604 10.1875 7.25 C9.54490234 6.99734375 8.90230469 6.7446875 8.24023438 6.484375 C4.45585051 4.91571848 2.08988747 3.57378527 0 0 Z " fill="#F2A509" transform="translate(52,91)"/>
<path d="M0 0 C0.66 0.33 1.32 0.66 2 1 C1.51917969 1.64324219 1.03835937 2.28648438 0.54296875 2.94921875 C-1.48378864 6.95655425 -1.55753575 10.38257554 -1.6875 14.8125 C-1.72166016 15.60076172 -1.75582031 16.38902344 -1.79101562 17.20117188 C-1.87299875 19.13363119 -1.93818845 21.06679035 -2 23 C-1.34 23 -0.68 23 0 23 C0.20496094 23.55429688 0.40992188 24.10859375 0.62109375 24.6796875 C0.89050781 25.40414062 1.15992188 26.12859375 1.4375 26.875 C1.70433594 27.59429687 1.97117187 28.31359375 2.24609375 29.0546875 C2.97916854 31.03648845 2.97916854 31.03648845 4 33 C-0.25380138 31.48078522 -1.85060569 28.86890976 -4 25 C-6.73833154 18.04434502 -6.43019711 11.42003657 -3.5625 4.5625 C-2 2 -2 2 0 0 Z " fill="#A36477" transform="translate(51,62)"/>
<path d="M0 0 C0.33 0 0.66 0 1 0 C1 13.2 1 26.4 1 40 C-17.45945946 40 -17.45945946 40 -22 36 C-23.4375 33.25 -23.4375 33.25 -24 31 C-20.34683329 32.24976756 -19.21934164 32.67098753 -17 36 C-11.23924965 38.16028138 -6.34091743 38.36590826 0 39 C0 26.13 0 13.26 0 0 Z " fill="#DC9952" transform="translate(132,102)"/>
<path d="M0 0 C3.63 0 7.26 0 11 0 C11 0.33 11 0.66 11 1 C9.02 1.33 7.04 1.66 5 2 C5.763125 2.7425 6.52625 3.485 7.3125 4.25 C12.51986282 9.57846428 14.99329316 14.21131602 15.00390625 21.7890625 C14.59026067 28.05283847 13.58151734 32.00543988 9.4375 36.8125 C8 38 8 38 6 38 C6 36 6 36 8.4375 33.5 C9.283125 32.675 10.12875 31.85 11 31 C13.3540518 26.2918964 12.35821282 19.61195767 11.25 14.625 C9.85663304 11.69892939 8.06813631 9.48176358 6 7 C6 6.34 6 5.68 6 5 C5.01 4.67 4.02 4.34 3 4 C2.01 2.68 1.02 1.36 0 0 Z " fill="#915384" transform="translate(80,102)"/>
<path d="M0 0 C1.62723299 0.45034123 3.25173664 0.91055354 4.875 1.375 C6.23238281 1.75785156 6.23238281 1.75785156 7.6171875 2.1484375 C10 3 10 3 12 5 C5.4 5 -1.2 5 -8 5 C-7.979375 6.876875 -7.95875 8.75375 -7.9375 10.6875 C-7.93001602 17.49792049 -8.37868748 24.22103658 -9 31 C-9.33 31 -9.66 31 -10 31 C-10.02892385 26.87501462 -10.04677267 22.75005515 -10.0625 18.625 C-10.07087891 17.449375 -10.07925781 16.27375 -10.08789062 15.0625 C-10.09111328 13.94101563 -10.09433594 12.81953125 -10.09765625 11.6640625 C-10.10289307 10.62717285 -10.10812988 9.5902832 -10.11352539 8.52197266 C-10 6 -10 6 -9 4 C-6.71484375 3.3671875 -6.71484375 3.3671875 -3.9375 2.875 C-3.01839844 2.70742187 -2.09929688 2.53984375 -1.15234375 2.3671875 C-0.44207031 2.24601562 0.26820312 2.12484375 1 2 C0.67 1.34 0.34 0.68 0 0 Z " fill="#7C4082" transform="translate(55,95)"/>
<path d="M0 0 C1.08809212 0.00424484 1.08809212 0.00424484 2.19816589 0.00857544 C4.50077243 0.01971451 6.80298102 0.04480684 9.10546875 0.0703125 C10.6725204 0.08035044 12.23957818 0.08947487 13.80664062 0.09765625 C17.63556853 0.1196332 21.46420131 0.15411911 25.29296875 0.1953125 C25.29296875 0.5253125 25.29296875 0.8553125 25.29296875 1.1953125 C24.09752441 1.2250415 24.09752441 1.2250415 22.87792969 1.25537109 C19.26594403 1.35064498 15.65453476 1.46031557 12.04296875 1.5703125 C10.16158203 1.61671875 10.16158203 1.61671875 8.2421875 1.6640625 C7.03691406 1.70273437 5.83164063 1.74140625 4.58984375 1.78125 C2.92453613 1.82838135 2.92453613 1.82838135 1.22558594 1.87646484 C-1.62492996 2.18638607 -3.2556035 2.78847226 -5.70703125 4.1953125 C-6.36703125 4.2984375 -7.02703125 4.4015625 -7.70703125 4.5078125 C-10.67428337 5.52780542 -11.83393752 7.76029065 -13.70703125 10.1953125 C-14.36703125 10.1953125 -15.02703125 10.1953125 -15.70703125 10.1953125 C-15.70703125 11.8453125 -15.70703125 13.4953125 -15.70703125 15.1953125 C-16.03703125 15.1953125 -16.36703125 15.1953125 -16.70703125 15.1953125 C-17.03945274 11.04004393 -16.93190948 8.63674014 -15.01953125 4.8828125 C-10.77867137 -0.04575439 -6.19425532 -0.091865 0 0 Z " fill="#EFA31D" transform="translate(65.70703125,59.8046875)"/>
<path d="M0 0 C2.31 0 4.62 0 7 0 C7.33 0.66 7.66 1.32 8 2 C10.02463255 2.65213292 10.02463255 2.65213292 12 3 C12 3.66 12 4.32 12 5 C13.32 5 14.64 5 16 5 C16.33 5.99 16.66 6.98 17 8 C11.38854855 7.53237905 6.729037 6.15269133 2 3 C1.34 2.01 0.68 1.02 0 0 Z " fill="#E59D37" transform="translate(52,91)"/>
<path d="M0 0 C3.96930989 -0.02465881 7.93859034 -0.04284023 11.90795898 -0.05493164 C13.25920386 -0.05997057 14.61044326 -0.06680177 15.96166992 -0.07543945 C17.90020434 -0.08752419 19.838778 -0.09269828 21.77734375 -0.09765625 C23.52905884 -0.10551147 23.52905884 -0.10551147 25.31616211 -0.11352539 C28 0 28 0 29 1 C29.07179964 2.51928038 29.08392007 4.04167482 29.0625 5.5625 C29.05347656 6.38878906 29.04445312 7.21507813 29.03515625 8.06640625 C29.02355469 8.70449219 29.01195312 9.34257813 29 10 C28.67 10 28.34 10 28 10 C28 7.36 28 4.72 28 2 C24.62507371 1.94154804 21.25027913 1.90625258 17.875 1.875 C16.92367187 1.85824219 15.97234375 1.84148438 14.9921875 1.82421875 C9.91416745 1.78895472 5.75512475 1.96666383 1 4 C0.67 2.68 0.34 1.36 0 0 Z " fill="#F0A41B" transform="translate(103,60)"/>
<path d="M0 0 C1.50062713 0.0201013 3.00128034 0.03834564 4.50195312 0.0546875 C8.14768483 0.09838313 11.79242199 0.16720798 15.4375 0.25 C15.1075 0.91 14.7775 1.57 14.4375 2.25 C13.56013184 2.23428955 12.68276367 2.2185791 11.77880859 2.20239258 C8.50238048 2.15105624 5.22638402 2.11355003 1.94970703 2.08520508 C0.53557563 2.07018175 -0.87850968 2.04975695 -2.29248047 2.02368164 C-4.33312397 1.98701046 -6.37314792 1.97020964 -8.4140625 1.95703125 C-9.63947754 1.9413208 -10.86489258 1.92561035 -12.12744141 1.90942383 C-15.90100545 2.28356184 -18.21457115 3.55504177 -21.5625 5.25 C-23.9375 4.9375 -23.9375 4.9375 -25.5625 4.25 C-17.1923091 -0.54375082 -9.33005881 -0.21834336 0 0 Z " fill="#91508A" transform="translate(78.5625,56.75)"/>
<path d="M0 0 C3.63 0 7.26 0 11 0 C11 0.33 11 0.66 11 1 C9.02 1.33 7.04 1.66 5 2 C5.78375 2.7425 6.5675 3.485 7.375 4.25 C9.56504531 6.54433318 10.82731386 8.12158858 12 11 C9.96166576 9.7260411 7.96147874 8.38938077 6 7 C6 6.34 6 5.68 6 5 C5.01 4.67 4.02 4.34 3 4 C2.01 2.68 1.02 1.36 0 0 Z " fill="#7B3D8F" transform="translate(80,102)"/>
<path d="M0 0 C3.3 0 6.6 0 10 0 C10 0.33 10 0.66 10 1 C7.36 1.33 4.72 1.66 2 2 C3.28497537 4.56995074 4.49912373 4.90434463 7.0625 6.125 C7.79597656 6.47820312 8.52945313 6.83140625 9.28515625 7.1953125 C10.13400391 7.59363281 10.13400391 7.59363281 11 8 C10.67 8.66 10.34 9.32 10 10 C6.37 8.02 2.74 6.04 -1 4 C-0.67 2.68 -0.34 1.36 0 0 Z " fill="#E39D36" transform="translate(75,99)"/>
<path d="M0 0 C0.33 0 0.66 0 1 0 C1.03738281 1.05058594 1.07476562 2.10117188 1.11328125 3.18359375 C1.45493759 10.96113653 2.00662248 17.71177647 5 25 C1.97368885 22.16893473 0.13225237 20.321669 -0.11352539 16.00708008 C-0.10828857 15.26868896 -0.10305176 14.53029785 -0.09765625 13.76953125 C-0.09282227 12.56586914 -0.09282227 12.56586914 -0.08789062 11.33789062 C-0.07951172 10.50451172 -0.07113281 9.67113281 -0.0625 8.8125 C-0.05798828 7.96751953 -0.05347656 7.12253906 -0.04882812 6.25195312 C-0.03705403 4.16793845 -0.0191189 2.08396023 0 0 Z " fill="#E3984E" transform="translate(102,106)"/>
<path d="M0 0 C0.66 0 1.32 0 2 0 C2 1.32 2 2.64 2 4 C2.99 4 3.98 4 5 4 C5 5.32 5 6.64 5 8 C5.66 7.34 6.32 6.68 7 6 C7.33 7.32 7.66 8.64 8 10 C6.35 10.33 4.7 10.66 3 11 C2.67 9.02 2.34 7.04 2 5 C1.34 5 0.68 5 0 5 C0 3.35 0 1.7 0 0 Z " fill="#F3A41A" transform="translate(49,80)"/>
<path d="M0 0 C0.66 0.33 1.32 0.66 2 1 C3.50040461 6.50793694 4.44048089 13.7038778 2.10546875 19.046875 C1 20.6875 1 20.6875 -1 23 C-1.6875 21.1875 -1.6875 21.1875 -2 19 C-1.51660156 18.54753906 -1.03320312 18.09507812 -0.53515625 17.62890625 C1.17349687 16.12051209 1.17349687 16.12051209 1.328125 13.984375 C1.30234375 13.24703125 1.2765625 12.5096875 1.25 11.75 C1.22421875 10.96238281 1.1984375 10.17476562 1.171875 9.36328125 C0.94190061 6.20113342 0.53200305 3.1255179 0 0 Z " fill="#DE9954" transform="translate(90,114)"/>
<path d="M0 0 C0.66 0.33 1.32 0.66 2 1 C1.51917969 1.65355469 1.03835937 2.30710937 0.54296875 2.98046875 C-1.42988325 6.8412652 -1.55384618 10.03939635 -1.6875 14.3125 C-1.72166016 15.05306641 -1.75582031 15.79363281 -1.79101562 16.55664062 C-1.87293554 18.37058164 -1.93815822 20.18526353 -2 22 C-2.33 22 -2.66 22 -3 22 C-3.08710289 18.89601022 -3.14042309 15.79233452 -3.1875 12.6875 C-3.21263672 11.80642578 -3.23777344 10.92535156 -3.26367188 10.01757812 C-3.27333984 9.17001953 -3.28300781 8.32246094 -3.29296875 7.44921875 C-3.3086792 6.66893311 -3.32438965 5.88864746 -3.34057617 5.0847168 C-2.91847304 2.50096147 -1.98510058 1.63707833 0 0 Z " fill="#CB8556" transform="translate(51,62)"/>
<path d="M0 0 C3.4172113 5.12581695 6.30115594 10.46736968 9 16 C4.99916186 14.66638729 4.18276499 12.71884926 2.07421875 9.2109375 C0.55521504 6.08455169 0.21581128 3.4529804 0 0 Z " fill="#8E4F81" transform="translate(101,121)"/>
<path d="M0 0 C2.375 0.6875 2.375 0.6875 5 2 C5.68753301 3.65816784 6.35561283 5.32459336 7 7 C9.04105639 7.88693303 9.04105639 7.88693303 11 8 C10.01 8.495 10.01 8.495 9 9 C2.51768489 5.9903537 2.51768489 5.9903537 0.5625 2.25 C0.376875 1.5075 0.19125 0.765 0 0 Z " fill="#BA766B" transform="translate(108,133)"/>
<path d="M0 0 C5.61 0 11.22 0 17 0 C17 0.33 17 0.66 17 1 C11.06 1.495 11.06 1.495 5 2 C5.33 2.66 5.66 3.32 6 4 C4.02 3.34 2.04 2.68 0 2 C0 1.34 0 0.68 0 0 Z " fill="#9A5965" transform="translate(77,101)"/>
<path d="M0 0 C0.66 0 1.32 0 2 0 C2 0.66 2 1.32 2 2 C5.3 1.67 8.6 1.34 12 1 C12 1.33 12 1.66 12 2 C11.195625 2.12375 10.39125 2.2475 9.5625 2.375 C8.2940625 2.684375 8.2940625 2.684375 7 3 C6.67 3.66 6.34 4.32 6 5 C3.625 5.1875 3.625 5.1875 1 5 C0.34 4.01 -0.32 3.02 -1 2 C-0.67 1.34 -0.34 0.68 0 0 Z " fill="#F0A114" transform="translate(68,97)"/>
<path d="M0 0 C0.66 0.33 1.32 0.66 2 1 C1.01 3.31 0.02 5.62 -1 8 C-1.66 8 -2.32 8 -3 8 C-3 9.65 -3 11.3 -3 13 C-3.33 13 -3.66 13 -4 13 C-4.45732667 7.28341664 -3.52273754 4.51350747 0 0 Z " fill="#EAA52D" transform="translate(53,62)"/>
<path d="M0 0 C0.33 0 0.66 0 1 0 C1.50341475 5.2858549 0.26910671 7.86554151 -3 12 C-3.99 12.495 -3.99 12.495 -5 13 C-5 12.01 -5 11.02 -5 10 C-4.34 9.67 -3.68 9.34 -3 9 C-2.09274566 6.88672575 -2.09274566 6.88672575 -1.375 4.4375 C-1.11460937 3.61121094 -0.85421875 2.78492187 -0.5859375 1.93359375 C-0.39257812 1.29550781 -0.19921875 0.65742187 0 0 Z " fill="#D58F5A" transform="translate(155,82)"/>
<path d="M0 0 C0.99 0 1.98 0 3 0 C3.33 2.31 3.66 4.62 4 7 C3.01 6.67 2.02 6.34 1 6 C0.67 4.02 0.34 2.04 0 0 Z " fill="#F0A41C" transform="translate(106,126)"/>
</svg>
