<?xml version="1.0" encoding="UTF-8"?>
<svg version="1.1" xmlns="http://www.w3.org/2000/svg" width="200" height="200">
<path d="M0 0 C66 0 132 0 200 0 C200 66 200 132 200 200 C134 200 68 200 0 200 C0 134 0 68 0 0 Z " fill="#5522DE" transform="translate(0,0)"/>
<path d="M0 0 C5.259375 0.061875 10.51875 0.12375 15.9375 0.1875 C15.9375 14.3775 15.9375 28.5675 15.9375 43.1875 C10.3275 43.1875 4.7175 43.1875 -1.0625 43.1875 C-1.0625 44.1775 -1.0625 45.1675 -1.0625 46.1875 C0.9175 46.5175 2.8975 46.8475 4.9375 47.1875 C4.9375 48.1775 4.9375 49.1675 4.9375 50.1875 C5.494375 50.22875 6.05125 50.27 6.625 50.3125 C10.60780477 51.81950721 13.06742356 55.44734712 14.9375 59.1875 C16.15822895 73.76649144 16.15822895 73.76649144 12.625 78 C7.48035714 82.1875 7.48035714 82.1875 3.9375 82.1875 C3.9375 82.8475 3.9375 83.5075 3.9375 84.1875 C0.43157236 85.35614255 -2.71024021 85.31276009 -6.35546875 85.28515625 C-7.64735107 85.28265869 -8.9392334 85.28016113 -10.27026367 85.27758789 C-11.91357666 85.26848389 -13.55688965 85.25937988 -15.25 85.25 C-23.0771875 85.2190625 -23.0771875 85.2190625 -31.0625 85.1875 C-31.0625 70.9975 -31.0625 56.8075 -31.0625 42.1875 C-25.4525 42.1875 -19.8425 42.1875 -14.0625 42.1875 C-14.0625 41.5275 -14.0625 40.8675 -14.0625 40.1875 C-14.743125 40.105 -15.42375 40.0225 -16.125 39.9375 C-21.90340835 38.4621617 -26.87439986 35.59836074 -30.1875 30.57421875 C-32.95947705 23.01315636 -31.73606362 13.60506372 -29.0625 6.1875 C-22.18167629 -1.9724032 -9.55565623 -0.15904981 0 0 Z " fill="#F2A311" transform="translate(78.0625,57.8125)"/>
<path d="M0 0 C11.22 0 22.44 0 34 0 C34 4.29 34 8.58 34 13 C41.59 13 49.18 13 57 13 C57.061875 15.35125 57.12375 17.7025 57.1875 20.125 C57.22846802 21.21772217 57.22846802 21.21772217 57.27026367 22.33251953 C57.32900633 26.99024358 56.36177235 30.0203206 54 34 C53.34 34 52.68 34 52 34 C51.74476563 34.59296875 51.48953125 35.1859375 51.2265625 35.796875 C49.87027207 38.23301449 48.55700267 39.52873893 46.375 41.25 C45.74335938 41.77078125 45.11171875 42.2915625 44.4609375 42.828125 C42 44 42 44 34 44 C34 57.53 34 71.06 34 85 C23.458435 85 16.47190129 84.79064853 8.44140625 77.60546875 C0.99196534 69.97025625 -0.45577058 59.76088955 -0.45318604 49.49249268 C-0.43254089 48.24200134 -0.41189575 46.99151001 -0.390625 45.703125 C-0.38496521 44.38834167 -0.37930542 43.07355835 -0.37347412 41.71893311 C-0.35838673 38.26639942 -0.31925795 34.81456636 -0.2746582 31.36230469 C-0.23333434 27.8223637 -0.21516381 24.28230328 -0.1953125 20.7421875 C-0.1548758 13.82751142 -0.076547 6.91474531 0 0 Z " fill="#F5A50C" transform="translate(100,58)"/>
<path d="M0 0 C0.99 0.33 1.98 0.66 3 1 C3 1.66 3 2.32 3 3 C5.97 3.66 8.94 4.32 12 5 C12 5.99 12 6.98 12 8 C12.8353125 8.061875 12.8353125 8.061875 13.6875 8.125 C17.67030477 9.63200721 20.12992356 13.25984712 22 17 C23.21825914 31.54949492 23.21825914 31.54949492 19.875 35.75 C14.35352103 40.07115745 9.93073728 41.44470054 2.9765625 41.29296875 C2.31422607 41.28994751 1.65188965 41.28692627 0.96948242 41.28381348 C-1.47883939 41.26824676 -3.92693716 41.2263636 -6.375 41.1875 C-14.604375 41.0946875 -14.604375 41.0946875 -23 41 C-23 27.8 -23 14.6 -23 1 C-15.41 1.33 -7.82 1.66 0 2 C0 1.34 0 0.68 0 0 Z " fill="#F5A50B" transform="translate(71,100)"/>
<path d="M0 0 C11.88 0 23.76 0 36 0 C36 3.96 36 7.92 36 12 C42.93 12 49.86 12 57 12 C57.33 11.34 57.66 10.68 58 10 C58 11.32 58 12.64 58 14 C50.41 14 42.82 14 35 14 C35 9.71 35 5.42 35 1 C23.78 1 12.56 1 1 1 C1.04679949 8.60959646 1.09750984 16.21757459 1.18379211 23.8265686 C1.22292694 27.37105096 1.25542215 30.9152901 1.27099609 34.45996094 C1.28925054 38.54140779 1.33929548 42.62195901 1.390625 46.703125 C1.39185364 47.95361633 1.39308228 49.20410767 1.39434814 50.49249268 C1.51499817 57.83686302 2.55445451 63.8288286 5.24407959 70.68231201 C6 73 6 73 5 75 C4.34 75 3.68 75 3 75 C2.01 75.495 2.01 75.495 1 76 C1.03255208 74.11197917 1.06510417 72.22395833 1.09765625 70.3359375 C1.04737642 67.90296748 1.04737642 67.90296748 0.5 65.15625 C-0.03826597 61.75844606 -0.09757872 58.56271423 -0.0625 55.125 C-0.05347656 53.97257812 -0.04445313 52.82015625 -0.03515625 51.6328125 C-0.02355469 50.76398438 -0.01195313 49.89515625 0 49 C-0.66 49 -1.32 49 -2 49 C-2 48.01 -2 47.02 -2 46 C-2.66 46 -3.32 46 -4 46 C-3.9592334 46.55872803 -3.9184668 47.11745605 -3.87646484 47.69311523 C-3.69587578 50.27383412 -3.53535328 52.85544782 -3.375 55.4375 C-3.31054688 56.31599609 -3.24609375 57.19449219 -3.1796875 58.09960938 C-2.82286891 64.14322424 -3.43980431 69.14628868 -5 75 C-5.33 75 -5.66 75 -6 75 C-6.02578125 73.98679687 -6.0515625 72.97359375 -6.078125 71.9296875 C-6.13444181 70.57808403 -6.19178833 69.22652319 -6.25 67.875 C-6.26417969 67.20984375 -6.27835938 66.5446875 -6.29296875 65.859375 C-6.53942492 60.83166917 -7.84318391 57.88218743 -11 54 C-12.65661761 52.98343919 -14.32111559 51.97934924 -16 51 C-16 50.01 -16 49.02 -16 48 C-17.98 47.67 -19.96 47.34 -22 47 C-22 46.01 -22 45.02 -22 44 C-16.39 44 -10.78 44 -5 44 C-5 29.81 -5 15.62 -5 1 C-4.67 1 -4.34 1 -4 1 C-3.67 14.86 -3.34 28.72 -3 43 C-2.01 42.505 -2.01 42.505 -1 42 C-0.67 28.14 -0.34 14.28 0 0 Z " fill="#672DB3" transform="translate(99,57)"/>
<path d="M0 0 C0.64469238 0.00100708 1.28938477 0.00201416 1.95361328 0.00305176 C4.34930209 0.00826223 6.74496543 0.02222344 9.140625 0.03515625 C17.184375 0.06609375 17.184375 0.06609375 25.390625 0.09765625 C25.390625 14.28765625 25.390625 28.47765625 25.390625 43.09765625 C19.780625 43.09765625 14.170625 43.09765625 8.390625 43.09765625 C8.390625 43.75765625 8.390625 44.41765625 8.390625 45.09765625 C7.400625 45.09765625 6.410625 45.09765625 5.390625 45.09765625 C5.390625 44.43765625 5.390625 43.77765625 5.390625 43.09765625 C10.7654635 40.410237 17.38137287 42.09765625 23.390625 42.09765625 C23.390625 30.87765625 23.390625 19.65765625 23.390625 8.09765625 C21.410625 8.42765625 19.430625 8.75765625 17.390625 9.09765625 C18.380625 8.43765625 19.370625 7.77765625 20.390625 7.09765625 C19.400625 6.43765625 18.410625 5.77765625 17.390625 5.09765625 C17.390625 4.43765625 17.390625 3.77765625 17.390625 3.09765625 C9.470625 2.76765625 1.550625 2.43765625 -6.609375 2.09765625 C-6.939375 2.75765625 -7.269375 3.41765625 -7.609375 4.09765625 C-9.259375 3.76765625 -10.909375 3.43765625 -12.609375 3.09765625 C-11.609375 1.09765625 -11.609375 1.09765625 -10.02246094 0.47875977 C-6.6801829 -0.04909293 -3.37356498 -0.02493846 0 0 Z " fill="#EAA12A" transform="translate(68.609375,57.90234375)"/>
<path d="M0 0 C11.22 0 22.44 0 34 0 C34 4.29 34 8.58 34 13 C33.67 13 33.34 13 33 13 C33 9.04 33 5.08 33 1 C22.77 1 12.54 1 2 1 C2.33 22.78 2.66 44.56 3 67 C0.05143627 62.5771544 -0.12458491 59.30241723 -0.11352539 54.03808594 C-0.11344986 52.83714294 -0.11337433 51.63619995 -0.11329651 50.39886475 C-0.10813522 49.10708313 -0.10297394 47.81530151 -0.09765625 46.484375 C-0.09579017 45.14487765 -0.09436716 43.80537962 -0.09336853 42.46588135 C-0.08955835 38.94777528 -0.07974091 35.42971079 -0.06866455 31.91162109 C-0.05841817 28.31869072 -0.05380914 24.7257534 -0.04882812 21.1328125 C-0.03864849 14.08850501 -0.01907305 7.04431152 0 0 Z " fill="#BE7B62" transform="translate(100,58)"/>
<path d="M0 0 C2.64 0 5.28 0 8 0 C8.66 0.66 9.32 1.32 10 2 C6.535 3.485 6.535 3.485 3 5 C3 7.76326867 3.01647643 10.52586729 3.03515625 13.2890625 C3.04446598 15.40104082 3.05357255 17.51302003 3.0625 19.625 C3.07087891 20.70007813 3.07925781 21.77515625 3.08789062 22.8828125 C3.09111328 23.90375 3.09433594 24.9246875 3.09765625 25.9765625 C3.10289307 26.91580566 3.10812988 27.85504883 3.11352539 28.82275391 C3 31 3 31 2 32 C1.71599669 35.10149646 1.5512529 38.20292646 1.37890625 41.3125 C1.25386719 42.199375 1.12882813 43.08625 1 44 C0.01 44.495 0.01 44.495 -1 45 C-1.33 44.34 -1.66 43.68 -2 43 C-4.52733235 42.34444881 -4.52733235 42.34444881 -7 42 C-7 41.67 -7 41.34 -7 41 C-4.69 41 -2.38 41 0 41 C0 27.47 0 13.94 0 0 Z " fill="#5021D4" transform="translate(134,102)"/>
<path d="M0 0 C0.66 0 1.32 0 2 0 C2 13.53 2 27.06 2 41 C-8.21538462 41 -8.21538462 41 -11.9375 40.125 C-12.66839844 39.96257812 -13.39929688 39.80015625 -14.15234375 39.6328125 C-16 39 -16 39 -18 37 C-13.71 37.33 -9.42 37.66 -5 38 C-5 37.34 -5 36.68 -5 36 C-5.66 35.67 -6.32 35.34 -7 35 C-6.01 35 -5.02 35 -4 35 C-4 36.32 -4 37.64 -4 39 C-2.68 39 -1.36 39 0 39 C0 26.13 0 13.26 0 0 Z " fill="#D0894C" transform="translate(132,102)"/>
<path d="M0 0 C9.81996112 -0.34057669 19.29046527 0.71153094 29 2 C29 2.66 29 3.32 29 4 C27.55548462 4.029729 27.55548462 4.029729 26.08178711 4.06005859 C22.48274151 4.13657179 18.88407631 4.22521561 15.28540039 4.31738281 C13.73274284 4.35548484 12.18000267 4.39036928 10.62719727 4.421875 C8.38528053 4.46793685 6.14392355 4.52585878 3.90234375 4.5859375 C3.21663803 4.59748871 2.53093231 4.60903992 1.82444763 4.62094116 C-2.79809177 4.76007254 -6.64007431 5.58717587 -11 7 C-9 4 -9 4 -7.0546875 3.48828125 C-6.33539063 3.43027344 -5.61609375 3.37226562 -4.875 3.3125 C-2.956875 3.1578125 -2.956875 3.1578125 -1 3 C-0.67 2.01 -0.34 1.02 0 0 Z " fill="#662CBB" transform="translate(65,54)"/>
<path d="M0 0 C7.92 0 15.84 0 24 0 C24.04125 2.3925 24.0825 4.785 24.125 7.25 C24.14320801 7.99668945 24.16141602 8.74337891 24.18017578 9.51269531 C24.21090134 13.19778057 24.04115309 15.88201812 22 19 C21.67 19 21.34 19 21 19 C19.98396143 13.20858017 20.03736764 9.5415502 22 4 C19.65061112 2.82530556 18.04926795 2.79965111 15.4296875 2.68359375 C14.53378906 2.64169922 13.63789063 2.59980469 12.71484375 2.55664062 C11.77769531 2.51732422 10.84054688 2.47800781 9.875 2.4375 C8.93011719 2.39431641 7.98523438 2.35113281 7.01171875 2.30664062 C4.67462908 2.20040928 2.3374317 2.09836824 0 2 C0 1.34 0 0.68 0 0 Z " fill="#E09839" transform="translate(133,71)"/>
<path d="M0 0 C2.91195693 2.91195693 2.36990305 5.19418329 2.4375 9.25 C2.43163499 17.52748902 2.43163499 17.52748902 -0.125 20.75 C-7.36828793 26.41866012 -13.00787817 26.36021853 -22 26 C-22 25.67 -22 25.34 -22 25 C-18.7 25 -15.4 25 -12 25 C-11.34 23.02 -10.68 21.04 -10 19 C-11.32 18.67 -12.64 18.34 -14 18 C-12.35 18 -10.7 18 -9 18 C-8.67 18.66 -8.34 19.32 -8 20 C-5.47266765 20.65555119 -5.47266765 20.65555119 -3 21 C-3.495 20.54625 -3.99 20.0925 -4.5 19.625 C-6 18 -6 18 -6 16 C-4.02 16 -2.04 16 0 16 C0 10.72 0 5.44 0 0 Z " fill="#F2A319" transform="translate(91,115)"/>
<path d="M0 0 C0.64469238 0.00100708 1.28938477 0.00201416 1.95361328 0.00305176 C4.34930209 0.00826223 6.74496543 0.02222344 9.140625 0.03515625 C17.184375 0.06609375 17.184375 0.06609375 25.390625 0.09765625 C25.390625 14.28765625 25.390625 28.47765625 25.390625 43.09765625 C25.060625 43.09765625 24.730625 43.09765625 24.390625 43.09765625 C24.390625 29.23765625 24.390625 15.37765625 24.390625 1.09765625 C9.045625 1.59265625 9.045625 1.59265625 -6.609375 2.09765625 C-6.939375 2.75765625 -7.269375 3.41765625 -7.609375 4.09765625 C-9.259375 3.76765625 -10.909375 3.43765625 -12.609375 3.09765625 C-11.609375 1.09765625 -11.609375 1.09765625 -10.02246094 0.47875977 C-6.6801829 -0.04909293 -3.37356498 -0.02493846 0 0 Z " fill="#C27A65" transform="translate(68.609375,57.90234375)"/>
<path d="M0 0 C0.99 0 1.98 0 3 0 C2.67 13.2 2.34 26.4 2 40 C1.34 40 0.68 40 0 40 C0 26.8 0 13.6 0 0 Z " fill="#F5A51C" transform="translate(48,101)"/>
<path d="M0 0 C1.32 0 2.64 0 4 0 C4.66 5.61 5.32 11.22 6 17 C7.32 17 8.64 17 10 17 C10.33 18.65 10.66 20.3 11 22 C7.88036045 20.63981009 5.99165178 19.16739866 3.8125 16.5625 C3.30332031 15.96566406 2.79414062 15.36882812 2.26953125 14.75390625 C-0.07411613 11.51606725 -0.11259733 8.66999454 -0.0625 4.8125 C-0.05347656 3.91144531 -0.04445313 3.01039062 -0.03515625 2.08203125 C-0.02355469 1.39496094 -0.01195313 0.70789063 0 0 Z " fill="#EDA01F" transform="translate(103,117)"/>
<path d="M0 0 C5.10268043 2.3736064 10.7408864 5.66061176 12.80859375 11.14453125 C13.58705553 16.63220626 12.50972789 21.72219093 11 27 C10.67 27 10.34 27 10 27 C9.96132812 25.48019531 9.96132812 25.48019531 9.921875 23.9296875 C9.86555819 22.57808403 9.80821167 21.22652319 9.75 19.875 C9.73582031 19.20984375 9.72164062 18.5446875 9.70703125 17.859375 C9.46057508 12.83166917 8.15681609 9.88218743 5 6 C3.34338239 4.98343919 1.67888441 3.97934924 0 3 C0 2.01 0 1.02 0 0 Z " fill="#7439A7" transform="translate(83,105)"/>
<path d="M0 0 C2.31 0 4.62 0 7 0 C7 0.33 7 0.66 7 1 C5.02 1 3.04 1 1 1 C1 15.19 1 29.38 1 44 C0.01 44.495 0.01 44.495 -1 45 C-1.33 44.34 -1.66 43.68 -2 43 C-4.52733235 42.34444881 -4.52733235 42.34444881 -7 42 C-7 41.67 -7 41.34 -7 41 C-4.69 41 -2.38 41 0 41 C0 27.47 0 13.94 0 0 Z " fill="#622AA8" transform="translate(134,102)"/>
<path d="M0 0 C0.66 0.33 1.32 0.66 2 1 C1.34 1.66 0.68 2.32 0 3 C-0.34541851 5.33157492 -0.67794257 7.66508361 -1 10 C-1.33644531 10.63164063 -1.67289063 11.26328125 -2.01953125 11.9140625 C-3.20281083 14.43147802 -3.23393815 16.23059746 -3.1875 19 C-3.18105469 19.845625 -3.17460938 20.69125 -3.16796875 21.5625 C-3.01154076 23.83252477 -2.63089814 25.81961604 -2 28 C-3.48046875 26.953125 -3.48046875 26.953125 -5 25 C-5.36328125 21.671875 -5.36328125 21.671875 -5.3125 17.75 C-5.30863281 16.46609375 -5.30476563 15.1821875 -5.30078125 13.859375 C-4.93778867 9.20175588 -4.44681527 4.72504898 -1.375 1.0625 C-0.694375 0.5365625 -0.694375 0.5365625 0 0 Z " fill="#C78454" transform="translate(52,61)"/>
<path d="M0 0 C0.42410156 0.39832031 0.84820312 0.79664063 1.28515625 1.20703125 C6.9404973 6.31548218 12.33048114 9.06469282 20 10 C20 10.33 20 10.66 20 11 C17.36 11.33 14.72 11.66 12 12 C12 11.34 12 10.68 12 10 C9.69 10 7.38 10 5 10 C3.33333333 6.66666667 1.66666667 3.33333333 0 0 Z " fill="#672DB6" transform="translate(105,132)"/>
<path d="M0 0 C0.33 0 0.66 0 1 0 C1 6.6 1 13.2 1 20 C0.01 20 -0.98 20 -2 20 C-2 20.99 -2 21.98 -2 23 C-3.82193842 24.9249647 -5.89235283 26.37535531 -8 28 C-8.66 27.67 -9.32 27.34 -10 27 C-8.38405168 24.95880212 -6.7143618 22.95927063 -5 21 C-4.34 21 -3.68 21 -3 21 C-1.22598368 16.37025009 -0.60358379 12.03955157 -0.375 7.125 C-0.33632812 6.43664062 -0.29765625 5.74828125 -0.2578125 5.0390625 C-0.16451834 3.35976754 -0.08121762 1.67992233 0 0 Z " fill="#763DA2" transform="translate(157,71)"/>
<path d="M0 0 C3.20402248 3.20402248 2.42933059 6.95139992 2.44482422 11.31079102 C2.34924267 15.15214844 2.09650415 17.92649347 -0.375 20.9375 C-3 23 -3 23 -5 23 C-5 22.34 -5 21.68 -5 21 C-4.34 21 -3.68 21 -3 21 C-3.495 20.54625 -3.99 20.0925 -4.5 19.625 C-6 18 -6 18 -6 16 C-4.02 16 -2.04 16 0 16 C0 10.72 0 5.44 0 0 Z " fill="#E1983D" transform="translate(91,115)"/>
<path d="M0 0 C1.2065625 0.0309375 1.2065625 0.0309375 2.4375 0.0625 C2.4375 1.3825 2.4375 2.7025 2.4375 4.0625 C-0.5625 6.0625 -0.5625 6.0625 -3.25 5.6875 C-4.013125 5.48125 -4.77625 5.275 -5.5625 5.0625 C-3.15007962 0.07683121 -3.15007962 0.07683121 0 0 Z " fill="#EFA31D" transform="translate(56.5625,60.9375)"/>
<path d="M0 0 C4.10801767 1.18676066 5.89448334 1.89448334 9 5 C4.05 5 -0.9 5 -6 5 C-2 2 -2 2 0 2 C0 1.34 0 0.68 0 0 Z " fill="#6129BA" transform="translate(53,94)"/>
<path d="M0 0 C1.59035502 3.18071004 2.64848268 5.87657653 3.625 9.25 C3.88539062 10.14203125 4.14578125 11.0340625 4.4140625 11.953125 C4.60742188 12.62859375 4.80078125 13.3040625 5 14 C4.01 14 3.02 14 2 14 C1.01 14.495 1.01 14.495 0 15 C0 10.05 0 5.1 0 0 Z " fill="#5F28B9" transform="translate(100,118)"/>
<path d="M0 0 C-7.19750441 6.43181245 -7.19750441 6.43181245 -12.5 6.375 C-13.655 6.25125 -14.81 6.1275 -16 6 C-16 5.67 -16 5.34 -16 5 C-13.69 5 -11.38 5 -9 5 C-8.9175 4.38125 -8.835 3.7625 -8.75 3.125 C-8 1 -8 1 -6.1875 -0.3125 C-3.65143175 -1.10955002 -2.49947055 -0.72835725 0 0 Z " fill="#CF8A4C" transform="translate(150,96)"/>
<path d="M0 0 C3.40320742 1.01176437 4.75725331 1.64843582 6.8125 4.625 C7.204375 5.40875 7.59625 6.1925 8 7 C6.68 7 5.36 7 4 7 C4 6.01 4 5.02 4 4 C2.35 4.33 0.7 4.66 -1 5 C-0.67 3.35 -0.34 1.7 0 0 Z " fill="#5E28C3" transform="translate(45,87)"/>
<path d="M0 0 C0.99 0 1.98 0 3 0 C3.33 1.32 3.66 2.64 4 4 C5.32 4 6.64 4 8 4 C8.33 5.65 8.66 7.3 9 9 C5.18063472 7.44396229 2.73955562 5.04395069 0 2 C0 1.34 0 0.68 0 0 Z " fill="#D38D47" transform="translate(105,130)"/>
<path d="M0 0 C1.32 0 2.64 0 4 0 C4.33 0.99 4.66 1.98 5 3 C6.65 3 8.3 3 10 3 C10 3.66 10 4.32 10 5 C10.66 5.66 11.32 6.32 12 7 C7.24518354 6.42365861 4.02951788 4.44931479 0 2 C0 1.34 0 0.68 0 0 Z " fill="#D18B4A" transform="translate(52,91)"/>
<path d="M0 0 C0.33 0 0.66 0 1 0 C1 3.96 1 7.92 1 12 C0.01 12.495 0.01 12.495 -1 13 C-1.33 12.34 -1.66 11.68 -2 11 C-4.52733235 10.34444881 -4.52733235 10.34444881 -7 10 C-7 9.67 -7 9.34 -7 9 C-4.69 9 -2.38 9 0 9 C0 6.03 0 3.06 0 0 Z " fill="#632BBA" transform="translate(134,134)"/>
<path d="M0 0 C3.375 -0.125 3.375 -0.125 7 0 C7.66 0.66 8.32 1.32 9 2 C6.36 2.66 3.72 3.32 1 4 C0.67 2.68 0.34 1.36 0 0 Z " fill="#F3A319" transform="translate(113,135)"/>
<path d="M0 0 C0.33 0.99 0.66 1.98 1 3 C-1.25 4.625 -1.25 4.625 -4 6 C-5.32 5.34 -6.64 4.68 -8 4 C-5.36 2.68 -2.72 1.36 0 0 Z " fill="#5725C4" transform="translate(150,97)"/>
<path d="M0 0 C1.2077558 3.62326739 0.54311128 4.64146369 -1 8 C-1.66 7.67 -2.32 7.34 -3 7 C-3.625 4.4375 -3.625 4.4375 -4 2 C-2.68 1.34 -1.36 0.68 0 0 Z " fill="#EFA124" transform="translate(53,83)"/>
<path d="M0 0 C3.36591866 1.44253657 5.51047079 3.33264727 8 6 C7.67 6.66 7.34 7.32 7 8 C6.401875 7.360625 5.80375 6.72125 5.1875 6.0625 C3.09189663 3.79689611 3.09189663 3.79689611 0 3 C0 2.01 0 1.02 0 0 Z " fill="#B2726D" transform="translate(83,105)"/>
<path d="M0 0 C0.66 0.33 1.32 0.66 2 1 C2 2.65 2 4.3 2 6 C0.02 6.99 0.02 6.99 -2 8 C-1.47731534 5.23723823 -0.89130413 2.6739124 0 0 Z " fill="#EDA023" transform="translate(89,112)"/>
<path d="M0 0 C0.66 0.66 1.32 1.32 2 2 C1.7578125 4.3828125 1.7578125 4.3828125 1.125 7.125 C0.92132813 8.03507812 0.71765625 8.94515625 0.5078125 9.8828125 C0.34023438 10.58148438 0.17265625 11.28015625 0 12 C-0.33 12 -0.66 12 -1 12 C-1.02698189 10.37509046 -1.04638757 8.75005367 -1.0625 7.125 C-1.07410156 6.22007813 -1.08570313 5.31515625 -1.09765625 4.3828125 C-1 2 -1 2 0 0 Z " fill="#F2A41B" transform="translate(49,73)"/>
</svg>
